<svg width="44" height="44" viewBox="0 0 44 44" fill="none" xmlns="http://www.w3.org/2000/svg">
<g id="ph:x-bold">
<path id="Vector" d="M35.8342 32.9157C36.2217 33.3032 36.4394 33.8287 36.4394 34.3767C36.4394 34.9246 36.2217 35.4501 35.8342 35.8376C35.4468 36.2251 34.9212 36.4427 34.3733 36.4427C33.8253 36.4427 33.2998 36.2251 32.9123 35.8376L22 24.9218L11.0842 35.8342C10.6968 36.2216 10.1712 36.4393 9.62328 36.4393C9.07533 36.4393 8.54981 36.2216 8.16235 35.8342C7.77488 35.4467 7.55721 34.9212 7.55721 34.3732C7.55721 33.8253 7.77488 33.2997 8.16235 32.9123L19.0781 21.9999L8.16578 11.0842C7.77832 10.6967 7.56064 10.1712 7.56064 9.62322C7.56064 9.07526 7.77832 8.54974 8.16578 8.16228C8.55325 7.77481 9.07876 7.55714 9.62672 7.55714C10.1747 7.55714 10.7002 7.77481 11.0877 8.16228L22 19.0781L32.9158 8.16056C33.3032 7.77309 33.8288 7.55542 34.3767 7.55542C34.9247 7.55542 35.4502 7.77309 35.8377 8.16056C36.2251 8.54802 36.4428 9.07354 36.4428 9.6215C36.4428 10.1695 36.2251 10.695 35.8377 11.0824L24.9219 21.9999L35.8342 32.9157Z" fill="black"/>
</g>
</svg>
